<?xml version="1.0" standalone="no"?>
<!DOCTYPE svg PUBLIC "-//W3C//DTD SVG 20010904//EN"
 "http://www.w3.org/TR/2001/REC-SVG-20010904/DTD/svg10.dtd">
<svg version="1.0" xmlns="http://www.w3.org/2000/svg"
 width="598.000000pt" height="396.000000pt" viewBox="0 0 598.000000 396.000000"
 preserveAspectRatio="xMidYMid meet">

<g transform="translate(0.000000,396.000000) scale(0.100000,-0.100000)"
fill="#457ec9" stroke="none">
<path d="M535 3943 c-213 -42 -383 -174 -461 -359 l-29 -69 -3 -1495 c-2
-1052 0 -1512 8 -1552 30 -158 150 -317 293 -390 33 -16 93 -38 135 -49 73
-19 137 -19 2517 -19 2398 0 2443 0 2519 20 212 54 384 222 431 421 13 56 15
257 15 1521 0 1013 -3 1473 -11 1510 -20 100 -84 214 -163 292 -82 83 -162
128 -273 156 -77 20 -111 20 -2518 19 -1342 -1 -2449 -3 -2460 -6z m295 -553
l0 -91 -122 3 -123 3 -3 37 c-4 47 23 104 57 123 16 9 57 14 109 15 l82 0 0
-90z m538 74 c33 -23 52 -67 52 -119 l0 -45 -128 0 c-125 0 -129 1 -153 26
-36 39 -73 54 -144 61 l-65 6 0 43 0 44 208 0 c172 0 211 -3 230 -16z m2181
-171 c24 -30 20 -58 -11 -85 -19 -17 -54 -18 -425 -18 l-404 0 -24 25 c-30 29
-32 58 -5 85 19 19 33 20 434 20 l415 0 20 -27z m979 14 c6 -6 13 -24 17 -39
5 -21 1 -33 -19 -52 l-25 -26 -356 0 -356 0 -24 25 c-29 28 -31 51 -9 83 l15
22 373 0 c288 0 376 -3 384 -13z m932 -9 c27 -29 25 -54 -5 -83 l-24 -25 -322
0 c-318 0 -323 0 -346 22 -27 25 -30 64 -6 90 15 17 39 18 349 18 330 0 333 0
354 -22z m-4406 -19 l26 -20 0 -169 c0 -195 -2 -200 -80 -200 -86 0 -93 20
-88 223 3 126 6 148 22 166 25 28 84 28 120 0z m364 -126 l3 -63 -126 0 -125
0 0 58 c0 32 3 62 7 66 4 3 59 5 122 4 l116 -3 3 -62z m-588 -3 l0 -61 -122 3
-123 3 -3 58 -3 57 126 0 125 0 0 -60z m2 -217 c2 -43 8 -86 12 -95 7 -16 0
-18 -78 -18 -59 0 -97 5 -117 15 -43 23 -69 71 -69 128 l0 47 124 0 124 0 4
-77z m586 25 c6 -98 -43 -138 -173 -138 l-75 0 0 95 0 96 123 -3 122 -3 3 -47z
m3372 -823 l0 -475 -75 0 -75 0 0 30 0 29 -52 -24 c-96 -45 -170 -26 -247 61
-50 57 -71 122 -71 220 0 119 42 201 129 252 62 36 148 38 204 4 l37 -24 0
201 0 201 75 0 75 0 0 -475z m276 411 c29 -29 34 -41 34 -79 0 -38 -6 -52 -34
-81 -29 -31 -40 -36 -78 -36 -110 0 -163 124 -86 201 25 24 38 29 80 29 44 0
54 -4 84 -34z m-1958 -26 c61 -22 152 -78 152 -95 0 -6 -29 -39 -64 -74 l-63
-63 -47 33 c-38 27 -58 34 -110 37 -80 5 -122 -9 -179 -58 -59 -52 -88 -115
-90 -194 -3 -159 100 -276 243 -276 58 0 129 26 165 60 20 18 21 17 89 -47
l70 -66 -40 -34 c-90 -77 -227 -115 -337 -95 -242 45 -400 262 -368 507 24
184 170 349 341 385 62 13 170 4 238 -20z m-1988 -85 l0 -85 -197 -2 -198 -3
-3 -87 -3 -88 151 0 150 0 0 -79 c0 -63 -3 -80 -16 -85 -9 -3 -74 -6 -145 -6
l-129 0 0 -170 0 -170 -85 0 -85 0 0 430 0 430 280 0 280 0 0 -85z m1238 -82
l3 -93 49 0 50 0 0 -74 0 -75 -52 -3 -53 -3 0 -138 c0 -135 1 -139 25 -159 18
-14 32 -18 57 -13 l33 6 0 -65 c0 -63 -1 -66 -27 -73 -16 -4 -51 -7 -78 -7
-67 0 -114 27 -142 84 -21 40 -23 58 -23 207 l0 163 -35 0 -36 0 3 73 3 72 33
3 32 3 0 95 0 95 78 -3 77 -3 3 -92z m2992 2 l0 -95 50 0 50 0 0 -75 0 -75
-50 0 -50 0 0 -133 c0 -165 7 -181 81 -175 l49 3 0 -63 c0 -59 -2 -63 -27 -73
-16 -6 -53 -11 -84 -12 -67 0 -113 22 -146 73 -22 31 -23 43 -23 206 l0 173
-42 3 -43 3 -3 73 -3 72 46 0 45 0 0 95 0 95 75 0 75 0 0 -95z m-3900 -123
c37 -18 65 -41 85 -70 l30 -44 3 -229 3 -229 -75 0 -76 0 0 34 0 35 -50 -34
c-59 -40 -102 -50 -172 -42 -98 12 -151 69 -156 169 -4 59 -1 73 22 112 39 67
83 89 186 94 63 3 95 0 124 -12 49 -20 46 -21 46 12 0 97 -120 141 -235 86
l-38 -18 -39 43 c-21 24 -38 47 -38 50 0 12 118 64 162 72 71 12 158 1 218
-29z m557 6 c29 -11 55 -23 58 -28 5 -8 -62 -95 -74 -95 -3 1 -32 7 -64 14
-65 16 -107 5 -107 -28 0 -27 17 -38 111 -72 101 -37 134 -59 159 -109 42 -82
13 -190 -63 -235 -63 -36 -161 -49 -247 -31 -66 14 -174 62 -168 75 2 4 26 28
54 53 l50 47 44 -21 c24 -12 66 -24 95 -26 47 -4 54 -2 73 23 12 15 22 32 22
37 0 19 -52 56 -94 68 -126 35 -192 110 -180 203 12 85 55 129 147 146 54 11
119 3 184 -21z m1648 -1 c4 -17 5 -54 3 -81 -3 -49 -3 -49 -49 -62 -54 -16
-98 -54 -101 -86 -2 -32 -4 -83 -6 -225 l-2 -123 -75 0 -75 0 0 300 0 300 70
0 70 0 0 -31 0 -30 31 22 c26 18 95 46 121 48 4 1 10 -14 13 -32z m425 2 c99
-44 158 -135 167 -255 l6 -74 -202 0 c-177 0 -201 -2 -201 -16 0 -31 35 -75
78 -95 51 -25 98 -20 156 18 l38 25 49 -48 c56 -56 55 -61 -34 -110 -47 -26
-61 -29 -147 -29 -80 0 -102 4 -140 24 -61 32 -107 76 -138 136 -23 43 -27 62
-27 140 0 80 3 96 30 149 72 143 221 198 365 135z m970 -284 l0 -295 -69 0
-68 0 -7 140 c-4 76 -4 209 0 295 l7 155 69 0 68 0 0 -295z m-438 -620 l56
-18 -57 -42 c-93 -69 -147 -144 -186 -259 -68 -204 9 -438 184 -557 28 -19 51
-37 51 -40 0 -11 -71 -35 -142 -49 -146 -29 -303 23 -417 137 -109 108 -153
214 -152 363 2 219 135 404 339 471 74 25 240 22 324 -6z m680 -18 c164 -82
264 -234 275 -417 13 -206 -93 -392 -274 -482 -189 -94 -382 -62 -520 85 -102
109 -155 229 -155 348 0 113 37 217 105 294 40 45 55 43 94 -14 50 -74 67
-139 67 -261 1 -113 0 -117 -36 -190 l-36 -75 41 -59 c23 -33 48 -61 54 -64
19 -6 116 92 145 145 45 83 61 155 56 262 -3 86 -7 104 -41 175 -46 97 -82
143 -159 203 l-60 47 29 9 c15 5 48 15 73 22 29 9 83 13 155 12 105 -2 113 -4
187 -40z m-4124 -63 c15 -10 22 -25 22 -47 -1 -74 -15 -77 -320 -77 l-261 0
-24 25 c-14 13 -25 34 -25 45 0 12 11 32 25 45 l24 25 268 0 c227 0 272 -2
291 -16z m867 -9 c14 -13 25 -33 25 -45 0 -11 -11 -32 -25 -45 l-24 -25 -266
0 c-252 0 -266 1 -285 20 -34 34 -22 98 20 113 8 3 131 6 273 6 l258 1 24 -25z
m860 0 c14 -13 25 -33 25 -45 0 -11 -11 -32 -25 -45 l-24 -25 -269 0 c-257 0
-270 1 -296 21 -17 13 -26 30 -26 49 0 19 9 36 26 49 26 20 39 21 296 21 l269
0 24 -25z m825 5 c27 -27 25 -66 -5 -95 l-24 -25 -250 0 c-137 0 -257 3 -266
6 -8 4 -22 19 -30 35 -18 35 -6 75 27 89 13 5 137 9 276 9 239 1 253 0 272
-19z m-3048 -527 c15 -13 18 -32 18 -114 0 -139 -22 -180 -76 -144 -23 15 -24
21 -24 130 0 90 3 117 16 129 20 21 43 20 66 -1z m272 -2 c14 -15 16 -37 14
-131 -3 -101 -5 -114 -23 -126 -18 -12 -24 -11 -43 2 -21 14 -22 23 -22 134 0
103 2 120 18 129 25 15 37 13 56 -8z m258 2 c15 -14 18 -32 18 -129 0 -105 -1
-114 -22 -128 -29 -20 -34 -20 -58 4 -18 18 -20 33 -20 127 0 85 3 110 17 125
20 22 41 23 65 1z m486 5 c8 -8 12 -51 12 -127 0 -92 -3 -118 -17 -133 -21
-23 -38 -23 -63 2 -17 17 -20 33 -20 123 0 77 4 108 16 125 17 24 53 29 72 10z
m223 2 c17 -10 19 -22 19 -130 0 -122 -9 -150 -45 -150 -36 0 -45 28 -45 150
0 103 2 120 18 129 22 13 29 13 53 1z m249 -5 c8 -9 13 -56 14 -131 1 -104 -1
-117 -18 -130 -20 -14 -52 -11 -71 8 -6 5 -10 60 -10 124 0 103 2 117 19 130
25 18 50 18 66 -1z m234 -7 c18 -26 23 -189 7 -231 -13 -32 -39 -41 -67 -22
-23 15 -24 21 -24 133 0 78 4 122 12 130 19 19 55 14 72 -10z m208 5 c15 -14
18 -32 18 -125 0 -95 -2 -110 -20 -128 -11 -11 -24 -20 -30 -20 -5 0 -19 9
-30 20 -18 18 -20 33 -20 133 0 75 4 117 12 125 17 17 48 15 70 -5z m272 -5
c18 -26 23 -189 7 -231 -13 -32 -39 -41 -67 -22 -23 15 -24 21 -24 130 0 90 3
117 16 129 22 22 50 20 68 -6z"/>
<path d="M4494 2090 c-59 -24 -86 -105 -59 -175 27 -71 80 -94 144 -61 34 18
51 54 51 112 0 96 -63 154 -136 124z"/>
<path d="M1233 1910 c-12 -5 -29 -20 -38 -34 -34 -51 25 -112 99 -101 76 11
126 57 111 103 -10 35 -117 54 -172 32z"/>
<path d="M3915 2116 c-38 -17 -62 -43 -70 -79 l-7 -28 123 3 124 3 -3 25 c-9
64 -101 107 -167 76z"/>
</g>
</svg>
