<svg width="217" height="73" viewBox="0 0 217 73" fill="none" xmlns="http://www.w3.org/2000/svg">
<g clip-path="url(#clip0_48_2)">
<rect x="185" width="1" height="73" fill="url(#paint0_linear_48_2)"/>
<rect x="88" width="1" height="73" fill="url(#paint1_linear_48_2)"/>
<rect x="-10" y="19" width="231" height="1" fill="url(#paint2_linear_48_2)"/>
<path d="M74.4999 7L100.048 21.75V51.25L74.4999 66L48.9521 51.25V21.75L74.4999 7Z" fill="#D9E2FF"/>
<g filter="url(#filter0_d_48_2)">
<mask id="mask0_48_2" style="mask-type:alpha" maskUnits="userSpaceOnUse" x="64" y="19" width="23" height="35">
<path d="M64.5117 22.155C64.5117 20.7127 65.681 19.5435 67.1231 19.5435H70.3695V50.8453C70.3695 52.2875 69.2003 53.4567 67.758 53.4567H67.1231C65.681 53.4567 64.5117 52.2875 64.5117 50.8453V22.155Z" fill="#9973FF"/>
<path d="M64.5117 38.1956V32.3379H81.1691C82.6114 32.3379 83.7806 33.5071 83.7806 34.9494V35.5841C83.7806 37.0264 82.6114 38.1956 81.1691 38.1956H64.5117Z" fill="#9973FF"/>
<path d="M64.5117 25.4009V22.1547C64.5117 20.7124 65.681 19.5432 67.1231 19.5432H84.098C85.5404 19.5432 86.7096 20.7124 86.7096 22.1547V22.7895C86.7096 24.2317 85.5404 25.4009 84.098 25.4009H64.5117Z" fill="#9973FF"/>
</mask>
<g mask="url(#mask0_48_2)">
<path d="M94.3999 -16.3606H46.1599V74.7081H94.3999V-16.3606Z" fill="#9973FF"/>
<path d="M94.3999 -16.3606H46.1599V74.7081H94.3999V-16.3606Z" stroke="#CCCCCC" stroke-width="0.464566"/>
<path d="M94.3999 -16.3606H46.1599V74.7081H94.3999V-16.3606Z" stroke="black" stroke-opacity="0.2" stroke-width="0.464566"/>
</g>
</g>
<path d="M113.597 50.7407V24.973H130.205V27.9099H116.779V36.2311H128.562V39.133H116.779V50.7407H113.597ZM133.601 30.4622V26.3366H136.678V30.4622H133.601ZM133.601 50.7407V32.4551H136.678V50.7407H133.601ZM142.376 50.7407V32.4551H145.453V35.7416L148.635 32.4551H155.383L159.019 36.1262V50.7407H155.942V36.8954L154.089 34.9025H149.439L145.453 38.9582V50.7407H142.376ZM164.57 30.4622V26.3366H167.646V30.4622H164.57ZM164.57 50.7407V32.4551H167.646V50.7407H164.57Z" fill="black"/>
</g>
<rect x="0.5" y="0.5" width="216" height="72" rx="3.5" stroke="#CCCCCC"/>
<defs>
<filter id="filter0_d_48_2" x="62.6535" y="19.5432" width="25.9143" height="37.6299" filterUnits="userSpaceOnUse" color-interpolation-filters="sRGB">
<feFlood flood-opacity="0" result="BackgroundImageFix"/>
<feColorMatrix in="SourceAlpha" type="matrix" values="0 0 0 0 0 0 0 0 0 0 0 0 0 0 0 0 0 0 127 0" result="hardAlpha"/>
<feOffset dy="1.85827"/>
<feGaussianBlur stdDeviation="0.929134"/>
<feComposite in2="hardAlpha" operator="out"/>
<feColorMatrix type="matrix" values="0 0 0 0 0 0 0 0 0 0 0 0 0 0 0 0 0 0 0.25 0"/>
<feBlend mode="normal" in2="BackgroundImageFix" result="effect1_dropShadow_48_2"/>
<feBlend mode="normal" in="SourceGraphic" in2="effect1_dropShadow_48_2" result="shape"/>
</filter>
<linearGradient id="paint0_linear_48_2" x1="185.5" y1="0" x2="185.5" y2="73" gradientUnits="userSpaceOnUse">
<stop stop-color="#F0F0F0"/>
<stop offset="0.455" stop-color="#CCCCCC"/>
<stop offset="1" stop-color="#F0F0F0"/>
</linearGradient>
<linearGradient id="paint1_linear_48_2" x1="88.5" y1="0" x2="88.5" y2="73" gradientUnits="userSpaceOnUse">
<stop stop-color="#F0F0F0"/>
<stop offset="0.455" stop-color="#CCCCCC"/>
<stop offset="1" stop-color="#F0F0F0"/>
</linearGradient>
<linearGradient id="paint2_linear_48_2" x1="-10" y1="19.5" x2="221" y2="19.5" gradientUnits="userSpaceOnUse">
<stop stop-color="#F0F0F0"/>
<stop offset="0.46" stop-color="#CCCCCC"/>
<stop offset="1" stop-color="#F0F0F0"/>
</linearGradient>
<clipPath id="clip0_48_2">
<rect width="217" height="73" rx="4" fill="white"/>
</clipPath>
</defs>
</svg>
