<svg width="217" height="73" viewBox="0 0 217 73" fill="none" xmlns="http://www.w3.org/2000/svg">
<rect x="72" width="73" height="73" rx="5.74803" fill="#054938"/>
<path d="M108.473 4.82031C118.148 4.82057 125.992 12.664 125.992 22.3398C125.992 32.0153 118.148 39.8601 108.473 39.8604C99.2887 39.8602 91.756 32.7922 91.0137 23.7998H92.5596V23.7988H116.796C116.957 23.799 117.088 23.9297 117.088 24.0908V24.8213C117.087 26.4335 115.78 27.741 114.168 27.7412H98.1201C100.069 31.4716 103.972 34.0193 108.473 34.0195C114.923 34.0193 120.153 28.7899 120.153 22.3398C120.153 15.8893 114.923 10.6604 108.473 10.6602C103.972 10.6604 100.069 13.2071 98.1201 16.9375H114.168C115.78 16.9377 117.088 18.2449 117.088 19.8574V20.5869C117.088 20.7479 116.957 20.8787 116.796 20.8789H96.8867V20.8799H91.0137C91.7555 11.887 99.2884 4.82047 108.473 4.82031Z" fill="white"/>
<path d="M126.689 35.1592L117.674 29.1885V15.4609L126.689 9.49219V35.1592Z" fill="#054938"/>
<path d="M77.711 61.8594V44.8703H81.3029V58.8979H88.5863V61.8594H77.711ZM90.965 61.8594V44.8703H102.413V47.8318H94.557V51.8799H101.824V54.8414H94.557V58.8979H102.446V61.8594H90.965ZM119.479 44.8703V61.8594H116.376L108.985 51.1665H108.86V61.8594H105.268V44.8703H108.421L115.754 55.5548H115.903V44.8703H119.479ZM128.469 61.8594H122.446V44.8703H128.519C130.227 44.8703 131.698 45.2104 132.932 45.8906C134.165 46.5653 135.113 47.5359 135.777 48.8023C136.446 50.0688 136.781 51.5841 136.781 53.3482C136.781 55.1179 136.446 56.6388 135.777 57.9107C135.113 59.1827 134.159 60.1588 132.915 60.839C131.676 61.5193 130.194 61.8594 128.469 61.8594ZM126.038 58.7818H128.319C129.381 58.7818 130.274 58.5937 130.999 58.2177C131.729 57.8361 132.276 57.2471 132.641 56.4507C133.012 55.6488 133.197 54.6147 133.197 53.3482C133.197 52.0929 133.012 51.067 132.641 50.2706C132.276 49.4743 131.732 48.8881 131.007 48.512C130.283 48.1359 129.39 47.9479 128.328 47.9479H126.038V58.7818Z" fill="white"/>
<path d="M137.992 39.8633C140.088 39.8635 141.788 41.5629 141.788 43.6592C141.788 45.7555 140.088 47.4548 137.992 47.4551C135.896 47.4551 134.195 45.7557 134.195 43.6592C134.195 41.5627 135.896 39.8633 137.992 39.8633ZM137.992 40.5938C136.299 40.5938 134.926 41.9669 134.926 43.6602C134.926 45.3533 136.299 46.7256 137.992 46.7256C139.685 46.7254 141.057 45.3531 141.058 43.6602C141.058 41.967 139.685 40.5939 137.992 40.5938Z" fill="#387162"/>
<path d="M138.144 43.0951L137.47 43.2145C137.441 43.1283 137.397 43.0461 137.335 42.9681C137.275 42.8902 137.194 42.8263 137.091 42.7765C136.988 42.7268 136.86 42.7019 136.706 42.7019C136.495 42.7019 136.319 42.7491 136.178 42.8437C136.037 42.9366 135.966 43.0569 135.966 43.2046C135.966 43.3323 136.014 43.4352 136.108 43.5132C136.203 43.5911 136.355 43.655 136.566 43.7048L137.173 43.8441C137.525 43.9254 137.787 44.0507 137.96 44.2199C138.132 44.3892 138.219 44.609 138.219 44.8794C138.219 45.1084 138.152 45.3124 138.02 45.4916C137.888 45.6691 137.705 45.8085 137.47 45.9097C137.236 46.0109 136.964 46.0615 136.656 46.0615C136.228 46.0615 135.878 45.9703 135.608 45.7878C135.338 45.6036 135.172 45.3423 135.11 45.0039L135.83 44.8944C135.874 45.0818 135.966 45.2237 136.106 45.3199C136.245 45.4145 136.427 45.4618 136.651 45.4618C136.895 45.4618 137.09 45.4112 137.236 45.31C137.382 45.2071 137.455 45.0818 137.455 44.9342C137.455 44.8147 137.41 44.7143 137.32 44.633C137.232 44.5518 137.097 44.4904 136.915 44.4489L136.268 44.307C135.911 44.2257 135.647 44.0963 135.476 43.9188C135.307 43.7413 135.222 43.5165 135.222 43.2444C135.222 43.0188 135.285 42.8213 135.411 42.6521C135.538 42.4829 135.712 42.351 135.934 42.2564C136.156 42.1602 136.411 42.1121 136.698 42.1121C137.111 42.1121 137.436 42.2016 137.674 42.3808C137.911 42.5584 138.068 42.7964 138.144 43.0951ZM139.721 44.6878L139.716 43.7794H139.846L141.369 42.1618H142.26L140.522 44.0034H140.405L139.721 44.6878ZM139.037 45.9844V40.8876H139.781V45.9844H139.037ZM141.451 45.9844L140.082 44.1677L140.595 43.6475L142.364 45.9844H141.451Z" fill="white"/>
</svg>
