<svg width="659" height="439" viewBox="0 0 659 439" fill="none" xmlns="http://www.w3.org/2000/svg">
<path d="M54.9297 0.703654C31.2321 5.37643 12.3185 20.0623 3.64046 40.6447L0.414025 48.3214L0.0802559 214.65C-0.142257 331.692 0.0802559 382.87 0.970308 387.32C4.308 404.898 17.6588 422.588 33.5685 430.71C37.2399 432.49 43.9153 434.938 48.5881 436.162C56.7098 438.275 63.8302 438.275 328.621 438.275C595.414 438.275 600.42 438.275 608.876 436.05C632.462 430.042 651.598 411.351 656.827 389.211C658.274 382.981 658.496 360.618 658.496 219.99C658.496 107.287 658.162 56.1094 657.272 51.9929C655.047 40.8672 647.927 28.184 639.137 19.506C630.014 10.2717 621.114 5.26517 608.764 2.14999C600.198 -0.0751414 596.415 -0.0751414 328.621 0.0361151C179.314 0.147372 56.1535 0.369884 54.9297 0.703654ZM87.7504 62.2285V72.3528L74.1771 72.0191L60.4925 71.6853L60.1588 67.5688C59.7137 62.3397 62.7177 55.9981 66.5004 53.8843C68.2805 52.8829 72.842 52.3267 78.6273 52.2154H87.7504V62.2285ZM147.606 53.9955C151.278 56.5544 153.392 61.4497 153.392 67.235V72.2416H139.151C125.244 72.2416 124.799 72.1303 122.129 69.3489C118.123 65.0099 114.007 63.3411 106.108 62.5623L98.876 61.8947V57.1107V52.2154H122.017C141.153 52.2154 145.492 52.5492 147.606 53.9955ZM390.257 73.0204C392.927 76.3581 392.482 79.4732 389.033 82.4772C386.919 84.3685 383.025 84.4798 341.749 84.4798H296.801L294.131 81.6984C290.793 78.4719 290.571 75.2455 293.575 72.2416C295.689 70.1277 297.246 70.0164 341.86 70.0164H388.032L390.257 73.0204ZM499.177 71.4628C499.844 72.1303 500.623 74.1329 501.068 75.8018C501.624 78.1382 501.179 79.4732 498.954 81.5871L496.173 84.4798H456.566H416.958L414.288 81.6984C411.062 78.5832 410.839 76.0243 413.287 72.4641L414.956 70.0164H456.454C488.496 70.0164 498.287 70.3502 499.177 71.4628ZM602.868 72.4641C605.872 75.6905 605.649 78.4719 602.312 81.6984L599.641 84.4798H563.817C528.437 84.4798 527.881 84.4798 525.322 82.0321C522.318 79.2507 521.984 74.9117 524.655 72.0191C526.323 70.1277 528.994 70.0164 563.483 70.0164C600.198 70.0164 600.531 70.0164 602.868 72.4641ZM112.672 74.578L115.564 76.8031V95.6054C115.564 117.3 115.342 117.857 106.664 117.857C97.0959 117.857 96.3171 115.632 96.8734 93.0465C97.2072 79.0282 97.5409 76.5806 99.321 74.578C102.102 71.4628 108.667 71.4628 112.672 74.578ZM153.169 88.5963L153.503 95.6054H139.485H125.578V89.1526C125.578 85.5923 125.911 82.2547 126.356 81.8096C126.801 81.4759 132.92 81.2533 139.93 81.3646L152.835 81.6984L153.169 88.5963ZM87.7504 88.93V95.7167L74.1771 95.3829L60.4925 95.0491L60.1588 88.5963L59.825 82.2547H73.8433H87.7504V88.93ZM87.9729 113.073C88.1954 117.857 88.8629 122.641 89.308 123.642C90.0868 125.422 89.308 125.645 80.6299 125.645C74.0658 125.645 69.8381 125.088 67.6129 123.976C62.8289 121.417 59.9362 116.077 59.9362 109.735V104.506H73.732H87.5279L87.9729 113.073ZM153.169 110.291C153.837 121.194 148.385 125.645 133.922 125.645H125.578V115.075V104.395L139.262 104.728L152.835 105.062L153.169 110.291ZM528.326 201.855V254.702H519.982H511.638V251.365V248.138L505.852 250.808C495.172 255.815 486.939 253.701 478.372 244.022C472.809 237.68 470.473 230.448 470.473 219.545C470.473 206.306 475.145 197.183 484.825 191.509C491.723 187.503 501.291 187.281 507.521 191.063L511.638 193.734V171.371V149.009H519.982H528.326V201.855ZM559.033 156.129C562.259 159.355 562.816 160.69 562.816 164.918C562.816 169.146 562.148 170.704 559.033 173.93C555.806 177.379 554.583 177.935 550.355 177.935C538.117 177.935 532.22 164.139 540.787 155.573C543.568 152.903 545.014 152.346 549.687 152.346C554.583 152.346 555.695 152.791 559.033 156.129ZM341.193 159.022C347.979 161.469 358.104 167.7 358.104 169.591C358.104 170.259 354.877 173.93 350.983 177.824L343.974 184.833L338.745 181.162C334.517 178.158 332.292 177.379 326.507 177.045C317.606 176.489 312.933 178.046 306.592 183.498C300.028 189.283 296.801 196.293 296.579 205.082C296.245 222.772 307.704 235.789 323.614 235.789C330.067 235.789 337.966 232.896 341.971 229.113C344.197 227.111 344.308 227.222 351.873 234.342L359.661 241.685L355.211 245.468C345.198 254.035 329.956 258.262 317.718 256.037C290.793 251.031 273.215 226.888 276.775 199.63C279.445 179.159 295.689 160.802 314.714 156.796C321.611 155.35 333.627 156.351 341.193 159.022ZM120.015 168.478V177.935L98.0972 178.158L76.0684 178.492L75.7347 188.171L75.4009 197.961H92.2006H108.889V206.751C108.889 213.76 108.555 215.651 107.109 216.207C106.108 216.541 98.876 216.875 90.9768 216.875H76.6247V235.789V254.702H67.1679H57.7111V206.862V159.022H88.8629H120.015V168.478ZM257.75 177.601L258.084 187.948H263.536H269.098V196.181V204.526L263.313 204.859L257.417 205.193V220.546C257.417 235.566 257.528 236.011 260.198 238.236C262.201 239.794 263.758 240.239 266.54 239.683L270.211 239.015V246.247C270.211 253.256 270.1 253.59 267.207 254.368C265.427 254.813 261.533 255.147 258.529 255.147C251.075 255.147 245.846 252.143 242.731 245.802C240.394 241.351 240.172 239.349 240.172 222.772V204.637H236.278H232.273L232.606 196.515L232.94 188.505L236.612 188.171L240.172 187.837V177.268V166.698L248.85 167.032L257.417 167.366L257.75 177.601ZM590.63 177.379V187.948H596.192H601.755V196.293V204.637H596.192H590.63V219.434C590.63 237.791 591.408 239.571 599.641 238.904L605.093 238.57V245.579C605.093 252.143 604.87 252.588 602.089 253.701C600.309 254.368 596.192 254.925 592.744 255.036C585.289 255.036 580.172 252.588 576.5 246.914C574.052 243.465 573.941 242.13 573.941 223.995V204.748L569.268 204.414L564.484 204.08L564.151 195.959L563.817 187.948H568.935H573.941V177.379V166.81H582.285H590.63V177.379ZM156.729 191.063C160.846 193.066 163.961 195.625 166.186 198.851L169.524 203.747L169.858 229.224L170.191 254.702H161.847H153.392V250.919V247.026L147.829 250.808C141.265 255.258 136.481 256.371 128.693 255.481C117.79 254.146 111.893 247.804 111.337 236.679C110.892 230.115 111.225 228.557 113.784 224.218C118.123 216.764 123.019 214.316 134.478 213.76C141.487 213.426 145.047 213.76 148.274 215.095C153.725 217.32 153.392 217.431 153.392 213.76C153.392 202.968 140.041 198.073 127.246 204.192L123.019 206.194L118.68 201.41C116.343 198.74 114.452 196.181 114.452 195.848C114.452 194.512 127.58 188.727 132.475 187.837C140.375 186.502 150.054 187.726 156.729 191.063ZM218.699 190.396C221.926 191.62 224.818 192.955 225.152 193.511C225.708 194.401 218.254 204.08 216.919 204.08C216.585 203.969 213.359 203.302 209.799 202.523C202.567 200.743 197.894 201.967 197.894 205.638C197.894 208.642 199.786 209.866 210.244 213.649C221.481 217.765 225.152 220.213 227.934 225.776C232.606 234.899 229.38 246.914 220.924 251.921C213.915 255.926 203.012 257.372 193.444 255.37C186.101 253.812 174.085 248.472 174.753 247.026C174.975 246.58 177.646 243.91 180.761 241.129L186.324 235.9L191.219 238.236C193.889 239.571 198.562 240.906 201.788 241.129C207.017 241.574 207.796 241.351 209.91 238.57C211.245 236.901 212.358 235.01 212.358 234.454C212.358 232.34 206.572 228.223 201.9 226.888C187.881 222.994 180.538 214.65 181.873 204.303C183.208 194.846 187.992 189.951 198.228 188.06C204.236 186.836 211.468 187.726 218.699 190.396ZM402.05 190.507C402.495 192.399 402.606 196.515 402.384 199.519C402.05 204.971 402.05 204.971 396.932 206.417C390.924 208.197 386.029 212.425 385.695 215.985C385.473 219.545 385.25 225.219 385.028 241.018L384.805 254.702H376.461H368.117V221.325V187.948H375.905H383.693V191.397V194.735L387.142 192.287C390.034 190.285 397.711 187.17 400.604 186.947C401.049 186.836 401.716 188.505 402.05 190.507ZM449.334 190.285C460.348 195.18 466.912 205.304 467.914 218.655L468.581 226.888H446.107C426.415 226.888 423.745 227.111 423.745 228.668C423.745 232.117 427.639 237.012 432.423 239.238C438.097 242.019 443.326 241.463 449.779 237.235L454.007 234.454L459.458 239.794C465.689 246.024 465.577 246.58 455.676 252.032C450.446 254.925 448.889 255.258 439.321 255.258C430.42 255.258 427.973 254.813 423.745 252.588C416.958 249.028 411.84 244.133 408.392 237.457C405.833 232.673 405.388 230.56 405.388 221.882C405.388 212.981 405.721 211.201 408.725 205.304C416.736 189.395 433.313 183.276 449.334 190.285ZM557.253 221.882V254.702H549.576H542.011L541.232 239.126C540.787 230.671 540.787 215.874 541.232 206.306L542.011 189.061H549.687H557.253V221.882ZM508.522 290.861L514.753 292.863L508.411 297.536C498.064 305.213 492.056 313.557 487.717 326.351C480.152 349.048 488.719 375.082 508.189 388.321C511.304 390.435 513.863 392.438 513.863 392.771C513.863 393.995 505.963 396.665 498.064 398.223C481.821 401.449 464.354 395.664 451.67 382.981C439.543 370.965 434.648 359.172 434.759 342.595C434.982 318.23 449.779 297.647 472.475 290.193C480.708 287.412 499.177 287.745 508.522 290.861ZM584.177 292.863C602.423 301.986 613.548 318.897 614.772 339.257C616.219 362.176 604.425 382.87 584.288 392.883C563.261 403.341 541.788 399.781 526.435 383.426C515.086 371.299 509.19 357.948 509.19 344.709C509.19 332.137 513.306 320.566 520.872 311.999C525.322 306.993 526.991 307.215 531.33 313.557C536.893 321.79 538.784 329.022 538.784 342.595C538.895 355.167 538.784 355.612 534.779 363.734L530.774 372.078L535.335 378.642C537.894 382.313 540.675 385.429 541.343 385.762C543.457 386.43 554.249 375.527 557.475 369.63C562.482 360.396 564.262 352.385 563.706 340.481C563.372 330.913 562.927 328.91 559.144 321.011C554.026 310.219 550.021 305.101 541.454 298.426L534.779 293.197L538.005 292.196C539.674 291.639 543.346 290.527 546.127 289.748C549.353 288.747 555.361 288.302 563.372 288.413C575.054 288.635 575.944 288.858 584.177 292.863ZM125.355 299.872C127.024 300.985 127.803 302.654 127.803 305.101C127.691 313.334 126.134 313.668 92.2006 313.668H63.1627L60.4925 310.887C58.9349 309.44 57.7111 307.104 57.7111 305.88C57.7111 304.545 58.9349 302.32 60.4925 300.874L63.1627 298.092H92.9794C118.235 298.092 123.241 298.315 125.355 299.872ZM221.814 300.874C223.372 302.32 224.596 304.545 224.596 305.88C224.596 307.104 223.372 309.44 221.814 310.887L219.144 313.668H189.55C161.513 313.668 159.956 313.557 157.842 311.443C154.059 307.66 155.394 300.54 160.067 298.871C160.957 298.537 174.642 298.203 190.44 298.203L219.144 298.092L221.814 300.874ZM317.495 300.874C319.053 302.32 320.276 304.545 320.276 305.88C320.276 307.104 319.053 309.44 317.495 310.887L314.825 313.668H284.897C256.304 313.668 254.858 313.557 251.965 311.332C250.074 309.885 249.072 307.994 249.072 305.88C249.072 303.766 250.074 301.875 251.965 300.429C254.858 298.203 256.304 298.092 284.897 298.092H314.825L317.495 300.874ZM409.282 300.317C412.286 303.321 412.063 307.66 408.725 310.887L406.055 313.668H378.241C362.999 313.668 349.648 313.334 348.647 313.001C347.757 312.556 346.199 310.887 345.309 309.107C343.307 305.213 344.642 300.762 348.313 299.205C349.759 298.649 363.555 298.203 379.02 298.203C405.61 298.092 407.168 298.203 409.282 300.317ZM70.1718 358.95C71.8407 360.396 72.1745 362.51 72.1745 371.633C72.1745 387.097 69.7268 391.659 63.719 387.654C61.1601 385.985 61.0488 385.317 61.0488 373.19C61.0488 363.177 61.3826 360.173 62.8289 358.838C65.054 356.502 67.6129 356.613 70.1718 358.95ZM100.434 359.172C101.991 360.841 102.214 363.289 101.991 373.747C101.657 384.984 101.435 386.43 99.4323 387.765C97.4297 389.1 96.7621 388.989 94.6483 387.542C92.3119 385.985 92.2006 384.984 92.2006 372.634C92.2006 361.175 92.4231 359.283 94.2032 358.282C96.9847 356.613 98.3197 356.836 100.434 359.172ZM129.138 358.95C130.807 360.507 131.14 362.51 131.14 373.302C131.14 384.984 131.029 385.985 128.693 387.542C125.466 389.768 124.91 389.768 122.24 387.097C120.237 385.095 120.015 383.426 120.015 372.968C120.015 363.511 120.349 360.73 121.906 359.061C124.131 356.613 126.468 356.502 129.138 358.95ZM183.208 358.393C184.098 359.283 184.543 364.067 184.543 372.523C184.543 382.758 184.21 385.651 182.652 387.32C180.316 389.879 178.424 389.879 175.643 387.097C173.752 385.206 173.418 383.426 173.418 373.413C173.418 364.846 173.863 361.397 175.198 359.506C177.089 356.836 181.095 356.279 183.208 358.393ZM208.019 358.171C209.91 359.283 210.132 360.618 210.132 372.634C210.132 386.207 209.131 389.323 205.126 389.323C201.121 389.323 200.119 386.207 200.119 372.634C200.119 361.175 200.342 359.283 202.122 358.282C204.57 356.836 205.348 356.836 208.019 358.171ZM235.721 358.727C236.612 359.728 237.168 364.957 237.279 373.302C237.39 384.872 237.168 386.319 235.276 387.765C233.051 389.323 229.491 388.989 227.377 386.875C226.71 386.319 226.265 380.2 226.265 373.079C226.265 361.62 226.487 360.062 228.379 358.616C231.16 356.613 233.941 356.613 235.721 358.727ZM261.756 359.506C263.758 362.398 264.314 380.533 262.534 385.206C261.088 388.766 258.195 389.768 255.08 387.654C252.521 385.985 252.41 385.317 252.41 372.857C252.41 364.179 252.855 359.283 253.745 358.393C255.859 356.279 259.864 356.836 261.756 359.506ZM284.897 358.95C286.566 360.507 286.899 362.51 286.899 372.857C286.899 383.426 286.677 385.095 284.674 387.097C283.451 388.321 282.004 389.323 281.337 389.323C280.78 389.323 279.223 388.321 277.999 387.097C275.996 385.095 275.774 383.426 275.774 372.3C275.774 363.956 276.219 359.283 277.109 358.393C279 356.502 282.449 356.724 284.897 358.95ZM315.159 359.506C317.161 362.398 317.718 380.533 315.937 385.206C314.491 388.766 311.598 389.768 308.483 387.654C305.924 385.985 305.813 385.317 305.813 373.19C305.813 363.177 306.147 360.173 307.593 358.838C310.041 356.391 313.156 356.613 315.159 359.506Z" fill="#049CA1"/>
<path d="M495.394 206.861C488.83 209.531 485.826 218.543 488.83 226.331C491.834 234.23 497.731 236.789 504.851 233.117C508.634 231.115 510.525 227.11 510.525 220.657C510.525 209.976 503.516 203.523 495.394 206.861Z" fill="#049CA1"/>
<path d="M132.587 226.889C131.252 227.445 129.36 229.114 128.359 230.671C124.576 236.345 131.141 243.132 139.374 241.908C147.829 240.684 153.392 235.567 151.723 230.449C150.61 226.555 138.706 224.441 132.587 226.889Z" fill="#049CA1"/>
<path d="M430.977 203.969C426.749 205.86 424.079 208.753 423.189 212.758L422.41 215.873L436.095 215.539L449.891 215.206L449.557 212.424C448.555 205.304 438.32 200.52 430.977 203.969Z" fill="#049CA1"/>
</svg>
